# xmcd
#
# Track frame offsets:
#	150
#	13307
#	27000
#	38827
#	50200
#	61640
#	74427
#	85110
#	96642
#	107272
#	118702
#	130755
#	143067
#	156095
#	168677
#	180607
#
# Disc length: 2579 seconds
#
# Revision: 1
# Processed by: cddbd v1.5.1PL0 Copyright (c) Steve Scherf et al.
# Submitted via: EasyCDDAExtractor 4.6.9.1
#
DISCID=d90a1110
DTITLE=Glen Campbell - Great Hits
DYEAR=1990
DGENRE=Country
TTITLE0=Gentle On My Mind
TTITLE1=Wichita Lineman
TTITLE2=Galvestone
TTITLE3=Hey,Little One
TTITLE4=Dream Baby
TTITLE5=Break My Mind
TTITLE6=Reason To Believe
TTITLE7=Dreams Of The Everyday Housewife
TTITLE8=Elusive Butterfly
TTITLE9=That`s All That Matters
TTITLE10=Take Me Back
TTITLE11=I Wanna Live
TTITLE12=Turn Around And Look At Me
TTITLE13=The Impossible Dream
TTITLE14=It's Over
TTITLE15=Wher`s The Playground Susie
EXTD=
EXTT0=
EXTT1=
EXTT2=
EXTT3=
EXTT4=
EXTT5=
EXTT6=
EXTT7=
EXTT8=
EXTT9=
EXTT10=
EXTT11=
EXTT12=
EXTT13=
EXTT14=
EXTT15=
PLAYORDER=
